<svg xmlns="http://www.w3.org/2000/svg" fill="none" viewBox="0 0 48 48" id="Figma--Streamline-Svg-Logos" height="48" width="48"><desc>Figma Streamline Icon: https://streamlinehq.com</desc><path fill="#0acf83" d="M16.1666 47.50005c4.324 0 7.8333 -3.50935 7.8333 -7.83335V31.83335H16.1666c-4.324 0 -7.83335 3.50935 -7.83335 7.83335s3.50935 7.83335 7.83335 7.83335Z" stroke-width="0.5"></path><path fill="#a259ff" d="M8.33325 23.99995c0 -4.324 3.50935 -7.8333 7.83335 -7.8333h7.8333v15.66665H16.1666c-4.324 0 -7.83335 -3.50935 -7.83335 -7.83335Z" stroke-width="0.5"></path><path fill="#f24e1e" d="M8.33325 8.33335C8.33325 4.009335 11.8426 0.5 16.1666 0.5h7.8333v15.66665H16.1666c-4.324 0 -7.83335 -3.5093 -7.83335 -7.8333Z" stroke-width="0.5"></path><path fill="#ff7262" d="M23.99975 0.5h7.83335c4.324 0 7.8333 3.509335 7.8333 7.83335 0 4.324 -3.5093 7.8333 -7.8333 7.8333H23.99975V0.5Z" stroke-width="0.5"></path><path fill="#1abcfe" d="M39.6664 23.99995c0 4.324 -3.5093 7.83335 -7.8333 7.83335s-7.83335 -3.50935 -7.83335 -7.83335 3.50935 -7.8333 7.83335 -7.8333 7.8333 3.5093 7.8333 7.8333Z" stroke-width="0.5"></path></svg>