<svg xmlns="http://www.w3.org/2000/svg" fill="none" viewBox="0 0 48 48" id="Postman-Icon--Streamline-Svg-Logos" height="48" width="48"><desc>Postman Icon Streamline Icon: https://streamlinehq.com</desc><path fill="#ff6c37" d="M47.3078 26.98395C48.9525 14.1083 39.85965 2.336905 27.00745 0.6922 14.15525 -0.952505 2.336905 8.14035 0.6922 20.99255c-1.644705 12.85215 7.44815 24.64705 20.30035 26.31525 12.87565 1.6447 24.64705 -7.44815 26.31525 -20.32385Z" stroke-width="0.5"></path><path fill="#ffffff" d="M32.4817 15.5885 22.5665 25.5037l-2.796 -2.796C29.52125 12.95695 30.4846 13.8028 32.4817 15.5885Z" stroke-width="0.5"></path><path fill="#ff6c37" d="M22.5669 25.7387c-0.0705 0 -0.1175 -0.0235 -0.16445 -0.0705l-2.8195 -2.796c-0.094 -0.094 -0.094 -0.23495 0 -0.32895 9.9152 -9.9152 10.949 -8.9754 13.04015 -7.0957 0.047 0.047 0.0705 0.09395 0.0705 0.16445 0 0.0705 -0.0235 0.1175 -0.0705 0.1645L22.7079 25.6682c-0.0235 0.047 -0.094 0.0705 -0.141 0.0705Zm-2.46705 -3.03095 2.46705 2.46705L32.1297 15.612c-1.7387 -1.5507 -2.9135 -2.02065 -12.02985 7.09575Z" stroke-width="0.5"></path><path fill="#ffffff" d="m25.40955 28.34645 -2.70205 -2.702 9.91525 -9.9152c2.655 2.6785 -1.3158 7.02525 -7.2132 12.6172Z" stroke-width="0.5"></path><path fill="#ff6c37" d="M25.4098 28.58175c-0.07045 0 -0.11745 -0.0235 -0.16445 -0.07045l-2.702 -2.70205c-0.047 -0.04695 -0.047 -0.09395 -0.047 -0.16445 0 -0.0705 0.0235 -0.1175 0.0705 -0.16445l9.9152 -9.91525c0.09395 -0.09395 0.23495 -0.09395 0.32895 0 0.61085 0.5639 0.9398 1.36275 0.9163 2.1851 -0.047 2.60805 -3.00745 5.92095 -8.1295 10.7611 -0.0705 0.04695 -0.141 0.07045 -0.188 0.07045Zm-2.37305 -2.93695c1.5037 1.5272 2.1381 2.1381 2.37305 2.37305 3.9473 -3.7593 7.7771 -7.6126 7.8006 -10.26765 0.0235 -0.61085 -0.21145 -1.22175 -0.6109 -1.69165L23.03675 25.6448Z" stroke-width="0.5"></path><path fill="#ffffff" d="m19.81755 22.77805 1.99715 1.99715c0.047 0.047 0.047 0.094 0 0.14095 -0.0235 0.0235 -0.0235 0.0235 -0.047 0.0235l-4.13525 0.89285c-0.21145 0.0235 -0.3994 -0.11745 -0.4464 -0.32895 -0.0235 -0.11745 0.0235 -0.23495 0.094 -0.30545l2.39655 -2.39655c0.047 -0.047 0.11745 -0.0705 0.14095 -0.0235Z" stroke-width="0.5"></path><path fill="#ff6c37" d="M17.56205 26.06745c-0.3524 0 -0.6109 -0.28195 -0.6109 -0.6344 0 -0.16445 0.0705 -0.32895 0.188 -0.4464l2.39655 -2.3966c0.141 -0.11745 0.32895 -0.11745 0.4699 0l1.99715 1.99715c0.141 0.1175 0.141 0.32895 0 0.4699 -0.047 0.047 -0.09395 0.0705 -0.16445 0.094l-4.13525 0.89285c-0.047 0 -0.094 0.0235 -0.141 0.0235Zm2.1851 -3.03095 -2.30255 2.30255c-0.047 0.047 -0.0705 0.1175 -0.0235 0.188 0.0235 0.07045 0.09395 0.09395 0.16445 0.07045l3.8768 -0.84585 -1.7152 -1.71515Z" stroke-width="0.5"></path><path fill="#ffffff" d="M37.72165 10.0904c-1.5037 -1.45675 -3.9238 -1.40975 -5.3805 0.11745 -1.45675 1.52725 -1.40975 3.9238 0.11745 5.38055 1.2453 1.1983 3.12495 1.40975 4.6052 0.5169l-2.67855 -2.6785 3.3364 -3.3364Z" stroke-width="0.5"></path><path fill="#ff6c37" d="M35.0901 16.88065c-2.2321 0 -4.04125 -1.8092 -4.04125 -4.0413s1.80915 -4.04125 4.04125 -4.04125c1.0338 0 2.04415 0.3994 2.796 1.1278 0.047 0.047 0.0705 0.094 0.0705 0.16445 0 0.0705 -0.0235 0.1175 -0.0705 0.1645l-3.17195 3.1719 2.49055 2.49055c0.094 0.094 0.094 0.23495 0 0.32895 -0.0235 0.0235 -0.0235 0.0235 -0.04695 0.047 -0.6109 0.37595 -1.3393 0.5874 -2.06765 0.5874Zm0 -7.58915c-1.97365 0 -3.57135 1.5977 -3.54785 3.57135 0 1.97365 1.5977 3.57135 3.57135 3.54785 0.5404 0 1.0808 -0.11745 1.5742 -0.3759l-2.46705 -2.44355c-0.047 -0.047 -0.0705 -0.094 -0.0705 -0.1645 0 -0.0705 0.0235 -0.11745 0.0705 -0.16445l3.14845 -3.14845c-0.6344 -0.5404 -1.43325 -0.82235 -2.2791 -0.82235Z" stroke-width="0.5"></path><path fill="#ffffff" d="m37.79165 10.16075 -0.047 -0.047 -3.3599 3.3129 2.65505 2.65505c0.25845 -0.1645 0.5169 -0.35245 0.72835 -0.5639 1.50375 -1.48025 1.50375 -3.8768 0.0235 -5.35705Z" stroke-width="0.5"></path><path fill="#ff6c37" d="M37.0636 16.34005c-0.07045 0 -0.11745 -0.0235 -0.16445 -0.0705l-2.6785 -2.6785c-0.047 -0.047 -0.0705 -0.094 -0.0705 -0.16445 0 -0.0705 0.0235 -0.1175 0.0705 -0.1645l3.3364 -3.3364c0.09395 -0.09395 0.23495 -0.09395 0.3289 0l0.0705 0.047c1.5742 1.5742 1.57425 4.11175 0.0235 5.70945 -0.23495 0.235 -0.4934 0.44645 -0.77535 0.6109 -0.0705 0.0235 -0.1175 0.047 -0.141 0.047Zm-2.34955 -2.91345 2.37305 2.37305c0.188 -0.1175 0.37595 -0.28195 0.5169 -0.4229 1.3393 -1.3393 1.40975 -3.5244 0.1175 -4.93415l-3.00745 2.984Z" stroke-width="0.5"></path><path fill="#ffffff" d="M32.8813 16.01155c-0.5639 -0.5639 -1.48025 -0.5639 -2.04415 0L21.97925 24.86945l1.48025 1.48025 9.3748 -8.22355c0.6109 -0.5169 0.65785 -1.43325 0.14095 -2.0441 -0.04695 -0.0235 -0.07045 -0.047 -0.09395 -0.0705Z" stroke-width="0.5"></path><path fill="#ff6c37" d="M23.4359 26.5845c-0.0705 0 -0.1175 -0.0235 -0.1645 -0.0705l-1.4802 -1.48025c-0.094 -0.09395 -0.094 -0.23495 0 -0.3289l8.8579 -8.8579c0.65785 -0.6579 1.7152 -0.6579 2.37305 0 0.6579 0.65785 0.6579 1.71515 0 2.37305 -0.0235 0.0235 -0.047 0.047 -0.07045 0.0705L23.57685 26.514c-0.0235 0.047 -0.07045 0.0705 -0.14095 0.0705Zm-1.1278 -1.7152 1.1513 1.1513 9.21035 -8.08255c0.5169 -0.4229 0.5639 -1.1983 0.14095 -1.7152 -0.4229 -0.5169 -1.1983 -0.5639 -1.7152 -0.14095 -0.0235 0.0235 -0.047 0.047 -0.09395 0.07045L22.3081 24.8693Z" stroke-width="0.5"></path><path fill="#ffffff" d="M15.1889 34.9491c-0.094 0.047 -0.14095 0.141 -0.1175 0.23495l0.39945 1.6917c0.094 0.235 -0.047 0.51695 -0.30545 0.5874 -0.18795 0.0705 -0.3994 0 -0.5169 -0.14095l-2.58455 -2.56105 8.435 -8.435 2.91345 0.047 1.97365 1.97365c-0.4699 0.39945 -3.3129 3.14845 -10.19715 6.6023Z" stroke-width="0.5"></path><path fill="#ff6c37" d="M15.0009 37.69795c-0.18795 0 -0.3759 -0.07045 -0.4934 -0.21145l-2.56105 -2.56105c-0.047 -0.04695 -0.07045 -0.09395 -0.07045 -0.16445 0 -0.0705 0.02345 -0.1175 0.07045 -0.16445l8.435 -8.435c0.047 -0.047 0.11745 -0.0705 0.16445 -0.0705l2.9135 0.047c0.0705 0 0.11745 0.0235 0.16445 0.0705l1.97365 1.97365c0.047 0.047 0.0705 0.11745 0.0705 0.18795 0 0.0705 -0.0235 0.1175 -0.094 0.16445l-0.16445 0.141c-2.49055 2.1851 -5.87395 4.3702 -10.0797 6.46135l0.39945 1.6682c0.07045 0.30545 -0.0705 0.63435 -0.35245 0.79885 -0.141 0.0705 -0.25845 0.09395 -0.37595 0.09395Zm-2.5845 -2.93695 2.42005 2.39655c0.0705 0.1175 0.21145 0.1645 0.32895 0.094 0.11745 -0.0705 0.16445 -0.21145 0.09395 -0.32895l-0.3994 -1.6917c-0.047 -0.21145 0.047 -0.3994 0.23495 -0.4934 4.15875 -2.0911 7.51865 -4.25275 9.9857 -6.39085l-1.7387 -1.7387 -2.702 -0.04695 -8.2235 8.2Z" stroke-width="0.5"></path><path fill="#ffffff" d="m10.06675 36.7816 2.02065 -2.0206 3.00745 3.00745 -4.79315 -0.32895c-0.21145 -0.0235 -0.35245 -0.21145 -0.32895 -0.4229 0 -0.094 0.0235 -0.188 0.094 -0.235Z" stroke-width="0.5"></path><path fill="#ff6c37" d="m15.0953 37.9798 -4.81665 -0.32895c-0.35245 -0.02345 -0.5874 -0.3289 -0.5639 -0.68135 0.0235 -0.141 0.0705 -0.28195 0.18795 -0.37595l2.02065 -2.0206c0.094 -0.094 0.23495 -0.094 0.32895 0l3.00745 3.00745c0.0705 0.07045 0.094 0.16445 0.047 0.25845 -0.047 0.09395 -0.1175 0.14095 -0.21145 0.14095Zm-3.0075 -2.88995 -1.85615 1.85615c-0.0705 0.047 -0.0705 0.16445 0 0.21145 0.0235 0.0235 0.047 0.047 0.094 0.047l4.15875 0.28195 -2.3966 -2.39655Z" stroke-width="0.5"></path><path fill="#ff6c37" d="M19.67685 27.4067c-0.14095 0 -0.23495 -0.11745 -0.23495 -0.23495 0 -0.0705 0.0235 -0.11745 0.0705 -0.16445l2.27905 -2.2791c0.094 -0.094 0.235 -0.094 0.32895 0l1.48025 1.48025c0.0705 0.07045 0.094 0.14095 0.0705 0.23495 -0.0235 0.0705 -0.094 0.14095 -0.188 0.16445l-3.7593 0.79885 -0.047 0Zm2.2791 -2.1851 -1.55075 1.55075 2.53755 -0.5404 -0.9868 -1.01035Z" stroke-width="0.5"></path><path fill="#ffffff" d="m23.41265 26.373 -2.5845 0.5639c-0.188 0.047 -0.37595 -0.0705 -0.42295 -0.25845 -0.0235 -0.1175 0 -0.23495 0.094 -0.32895l1.43325 -1.43325 1.4802 1.45675Z" stroke-width="0.5"></path><path fill="#ff6c37" d="M20.781 27.17175c-0.32895 0 -0.5874 -0.25845 -0.5874 -0.5874 0 -0.16445 0.0705 -0.30545 0.16445 -0.4229l1.43325 -1.43325c0.094 -0.094 0.23495 -0.094 0.32895 0l1.48025 1.48025c0.0705 0.07045 0.09395 0.14095 0.0705 0.23495 -0.0235 0.0705 -0.094 0.14095 -0.188 0.16445l-2.5845 0.5639 -0.1175 0Zm1.1748 -1.95015 -1.2688 1.2688c-0.047 0.047 -0.047 0.09395 -0.0235 0.14095 0.0235 0.047 0.0705 0.0705 0.141 0.0705l2.1616 -0.4699 -1.0103 -1.01035Z" stroke-width="0.5"></path><path fill="#ff6c37" d="M37.81545 12.41675c-0.047 -0.14095 -0.2115 -0.21145 -0.35245 -0.16445 -0.141 0.047 -0.21145 0.21145 -0.16445 0.35245 0 0.02345 0.0235 0.04695 0.0235 0.07045 0.14095 0.28195 0.09395 0.6344 -0.094 0.89285 -0.094 0.1175 -0.0705 0.28195 0.0235 0.37595 0.11745 0.09395 0.28195 0.07045 0.3759 -0.047 0.35245 -0.44645 0.42295 -1.0103 0.188 -1.48025Z" stroke-width="0.5"></path></svg>